<svg xmlns="http://www.w3.org/2000/svg" width="948.493" height="638.245" viewBox="0 0 948.493 638.245">
  <g id="OBJECT" transform="translate(-56.5 -50.9)">
    <path id="Path_548" data-name="Path 548" d="M151.753,680.317H933c13.24,0,23.973-11.554,23.973-25.806h0c0-14.252-10.733-25.806-23.973-25.806H778.8c-18.4,0-33.309-16.053-33.309-35.855h0c.008-19.8,14.919-35.839,33.309-35.839H851.42c16.343-.009,29.586-14.272,29.586-31.864h0c0-17.589-13.246-31.848-29.586-31.848H774.155c-19.325,0-34.992-16.864-34.992-37.666h0c0-20.8,15.666-37.666,34.992-37.666H888.124c20.726-.009,37.523-18.1,37.523-40.407h0c0-22.285-16.761-40.363-37.463-40.407h-50c-16.233,0-29.393-14.166-29.393-31.64h0c0-17.474,13.16-31.64,29.393-31.64H957.124c17.987-.009,32.565-15.708,32.565-35.07h0c0-19.36-14.58-35.054-32.565-35.054h-218.7c-14.166-.009-25.647-12.368-25.656-27.617h0c.008-15.249,11.49-27.608,25.656-27.617H855.6a25.268,25.268,0,0,0,18.534-8.247,29.309,29.309,0,0,0,7.672-19.946h0c0-15.571-11.726-28.194-26.192-28.194H633.073A61.094,61.094,0,0,1,588.4,72.189h0a60.994,60.994,0,0,0-44.67-19.939H406.745c-23.594-.021-46.227,10.059-62.91,28.017h0c-16.659,17.927-39.25,28-62.806,28h-118c-21.214,0-38.41,18.517-38.4,41.353h0c.008,22.823,17.2,41.321,38.4,41.321h86.451c17.121,0,31,14.941,31,33.371h0c.008,18.436-13.874,33.387-31,33.387H105.594c-22.861,0-41.394,19.95-41.394,44.559h0c.025,24.59,18.55,44.511,41.394,44.51h102.4c18.3.018,33.125,16.009,33.1,35.711h0c-.008,19.69-14.839,35.647-33.13,35.647H170.336A33.705,33.705,0,0,0,145.6,429.136a39.1,39.1,0,0,0-10.227,26.626h0c0,20.758,15.633,37.586,34.917,37.586h56.7c12.9,0,23.356,11.262,23.347,25.148h0c0,13.88-10.453,25.132-23.348,25.132h-5.956c-16.558.053-29.952,14.521-29.944,32.345h0c.008,17.84,13.445,32.3,30.018,32.3h15.143c9.484.009,17.168,8.287,17.168,18.5h0c0,10.206-7.686,18.481-17.168,18.481h-84.5c-9.046,0-16.379,7.894-16.379,17.631h0c.1,9.662,7.4,17.439,16.379,17.439Z" transform="translate(3.765 0.814)" fill="#5fb5ff"/>
    <path id="Path_549" data-name="Path 549" d="M539.73,179.75V163h141.2v34.349H556.109C547.075,197.349,539.746,189.474,539.73,179.75Z" transform="translate(201.761 67.577)" fill="#a34262"/>
    <path id="Path_550" data-name="Path 550" d="M539.73,175.991v-16.7h135.5v34.333H556.109C547.063,193.623,539.73,185.729,539.73,175.991Z" transform="translate(201.911 65.34)" fill="#fdf7e7"/>
    <path id="Path_551" data-name="Path 551" d="M539.73,68.531V247.775a17.842,17.842,0,0,1,4.656-12.164,15.381,15.381,0,0,1,11.291-5.034h.432V50.9C547.063,50.9,539.73,58.794,539.73,68.531Z" transform="translate(204.785)" fill="#495375"/>
    <rect id="Rectangle_271" data-name="Rectangle 271" width="124.823" height="179.709" transform="translate(757.523 50.9)" fill="#cc6164"/>
    <path id="Path_552" data-name="Path 552" d="M655.766,168.468a771.5,771.5,0,0,0-108.206-.176,776.441,776.441,0,0,0,108.206.176Z" transform="translate(205.898 69.674)" fill="#f5d896"/>
    <path id="Path_553" data-name="Path 553" d="M613.442,172.56a354.852,354.852,0,0,0-49.882,0,354.875,354.875,0,0,0,49.882,0Z" transform="translate(214.088 72.811)" fill="#f5d896"/>
    <path id="Path_554" data-name="Path 554" d="M597.38,176.537a333.2,333.2,0,0,0-46.65,0,333.2,333.2,0,0,0,46.65,0Z" transform="translate(208.747 75.245)" fill="#f5d896"/>
    <path id="Path_555" data-name="Path 555" d="M634.21,176.367a333.2,333.2,0,0,0-46.65,0A333.208,333.208,0,0,0,634.21,176.367Z" transform="translate(224.303 75.142)" fill="#f5d896"/>
    <rect id="Rectangle_272" data-name="Rectangle 272" width="65.144" height="7.213" transform="translate(787.521 81.354)" fill="#e8916a"/>
    <rect id="Rectangle_273" data-name="Rectangle 273" width="65.144" height="7.213" transform="translate(787.521 95.779)" fill="#e8916a"/>
    <rect id="Rectangle_274" data-name="Rectangle 274" width="34.694" height="7.213" transform="translate(788.273 110.205)" fill="#e8916a"/>
    <path id="Path_556" data-name="Path 556" d="M440.927,468.174H341.67L354.386,366.94h73.825Z" transform="translate(119.702 190.517)" fill="#d4cfbe"/>
    <path id="Path_557" data-name="Path 557" d="M425.6,366.94H351.775l-4.765,37.843h83.354Z" transform="translate(122.179 190.517)" fill="#a59b95"/>
    <rect id="Rectangle_275" data-name="Rectangle 275" width="227.326" height="22.44" transform="translate(398.555 658.692)" fill="#a59b95"/>
    <path id="Path_558" data-name="Path 558" d="M694.447,155.477c0-11.508-8.666-20.837-19.357-20.837H232.857c-10.691,0-19.357,9.329-19.357,20.837V459.661H694.447Z" transform="translate(61.584 50.481)" fill="#422c4f"/>
    <rect id="Rectangle_276" data-name="Rectangle 276" width="451.167" height="292.964" rx="3" transform="translate(289.492 201.149)" fill="#7dd3e9"/>
    <path id="Path_559" data-name="Path 559" d="M276.218,426.908a226.072,226.072,0,0,1-32.624-91.874c-1.578-13.047-1.34-28.146,7.743-36.865,7.445-7.133,18.493-7.886,26.5-14.153,6.879-5.385,10.721-14.345,12.091-23.369,2.308-15.4.223-30.454,4.571-45.841,6.581-23.225,22.186-48.694,46.308-52.044,17.3-2.4,34.128,6.988,48.288,17.952s27.368,24.042,43.658,30.742c19.119,7.918,40.411,6.3,60.677,3.206s40.694-7.678,61.049-5.209,41.2,13.48,49.911,33.435c11.778,26.96-1.876,59.673,5.658,88.348,4.348,16.541,15.337,30.053,21.873,45.729s6.954,40.071-5.956,50.056Z" transform="translate(74.6 67.205)" fill="#5fa5cc"/>
    <path id="Path_560" data-name="Path 560" d="M213.5,337.42v44.526c0,11.508,8.666,20.837,19.357,20.837H675.09c10.691,0,19.357-9.329,19.357-20.837V337.42Z" transform="translate(61.584 172.722)" fill="#d4cfbe"/>
    <ellipse id="Ellipse_41" data-name="Ellipse 41" cx="12.478" cy="13.432" rx="12.478" ry="13.432" transform="translate(497.921 530.962)" fill="#a59b95"/>
    <path id="Path_561" data-name="Path 561" d="M694.447,337.42H213.5v44.526c0,11.508,8.666,20.837,19.357,20.837H247V365.469c0-8.852,6.667-16.028,14.89-16.028H694.447Z" transform="translate(61.584 172.722)" fill="#a59b95"/>
    <path id="Path_562" data-name="Path 562" d="M568.979,312.3c-4.244-25.9-21.283-47.24-44.432-55.65L460.594,233.42l-34.738,7.485-34.738-7.485-63.953,23.225c-23.149,8.41-40.188,29.75-44.432,55.65L271,384.086H580.712Z" transform="translate(87.277 110.028)" fill="#fff"/>
    <path id="Path_563" data-name="Path 563" d="M313.417,361.127,302.25,272.17l25.685,88.957Z" transform="translate(104.039 133.387)" fill="#e4e4e0"/>
    <path id="Path_564" data-name="Path 564" d="M445.018,361.127l11.168-88.957L430.5,361.127Z" transform="translate(158.335 133.387)" fill="#e4e4e0"/>
    <path id="Path_565" data-name="Path 565" d="M461.412,300.272a274.206,274.206,0,0,1-32.758,1.2,208.948,208.948,0,0,1-71.546-14.538A285.309,285.309,0,0,1,327.03,272.96,114.045,114.045,0,0,0,354.279,293.8a125.64,125.64,0,0,0,74.658,15.179A107.049,107.049,0,0,0,461.412,300.272Z" transform="translate(113.054 133.864)" fill="#e4e4e0"/>
    <path id="Path_566" data-name="Path 566" d="M438.26,277.29c-9.1,1.475-20.682,3.59-32.371,4.969s-23.407,2.116-32.579,2.853A95.625,95.625,0,0,0,438.26,277.29Z" transform="translate(133.53 136.474)" fill="#e4e4e0"/>
    <path id="Path_567" data-name="Path 567" d="M469.262,302.19c-8.487,1.891-18.106,4.167-28.291,6.315s-21.144,4.183-32.073,5.834-21.9,2.885-32.311,3.815-20.25,1.6-28.887,2.26a139.781,139.781,0,0,0,28.991,4.392,171.294,171.294,0,0,0,65.844-9.873A143.508,143.508,0,0,0,469.262,302.19Z" transform="translate(121.893 151.484)" fill="#e4e4e0"/>
    <path id="Path_568" data-name="Path 568" d="M386.408,240.905,351.67,233.42,365.309,282.5l9.47-12.214,3.991,3.206h15.277l3.99-3.206,9.47,12.214,13.639-49.079Z" transform="translate(124.343 110.028)" fill="#e4e4e0"/>
    <path id="Path_569" data-name="Path 569" d="M378.819,238.09,367.19,258.446l5.822,17.839h11.614l5.822-17.839Z" transform="translate(131.567 112.843)" fill="#f0bf6c"/>
    <path id="Path_570" data-name="Path 570" d="M387.736,261.92H376.122L360.83,366.905h42.2Z" transform="translate(128.604 127.208)" fill="#f0bf6c"/>
    <path id="Path_571" data-name="Path 571" d="M378.829,238.09l2.07,3.606-8.026,14.954a5.768,5.768,0,0,0-.4,4.472l.432,1.314a8.65,8.65,0,0,0,8.1,6.235h6.09l-2.487,7.613H372.992l-5.822-17.839Z" transform="translate(131.606 112.843)" fill="#eba25d"/>
    <path id="Path_572" data-name="Path 572" d="M359.725,220l26.683,29L367.8,281.581,351.67,241.51Z" transform="translate(124.837 101.938)" fill="#fff"/>
    <path id="Path_573" data-name="Path 573" d="M401.683,220,375,249l18.613,32.585,16.126-40.071Z" transform="translate(134.704 101.938)" fill="#fff"/>
    <path id="Path_574" data-name="Path 574" d="M383.763,217.42l-26.683,4.135,26.683,29,26.683-29Z" transform="translate(126.859 100.383)" fill="#468094"/>
    <path id="Path_575" data-name="Path 575" d="M360.83,209.49v22.92l21.1,22.92,21.1-22.92V209.49c-6.045,6.572-13.3,10.4-21.1,10.4S366.875,216.062,360.83,209.49Z" transform="translate(128.604 95.602)" fill="#f0bf9c"/>
    <path id="Path_576" data-name="Path 576" d="M360.83,183.42v41.786c6.045,6.572,13.3,10.4,21.1,10.4s15.054-3.831,21.1-10.4V183.42Z" transform="translate(128.604 79.886)" fill="#422c4f"/>
    <ellipse id="Ellipse_42" data-name="Ellipse 42" cx="21.397" cy="23.033" rx="21.397" ry="23.033" transform="translate(426.022 221.232)" fill="#eba588"/>
    <ellipse id="Ellipse_43" data-name="Ellipse 43" cx="13.222" cy="14.233" rx="13.222" ry="14.233" transform="translate(434.036 230.032)" fill="#e78882"/>
    <ellipse id="Ellipse_44" data-name="Ellipse 44" cx="21.397" cy="23.033" rx="21.397" ry="23.033" transform="translate(552.274 221.232)" fill="#eba588"/>
    <ellipse id="Ellipse_45" data-name="Ellipse 45" cx="13.222" cy="14.233" rx="13.222" ry="14.233" transform="translate(560.355 230.032)" fill="#e78882"/>
    <path id="Path_577" data-name="Path 577" d="M394.707,100.42c-33.141,0-60.007,28.92-60.007,64.594v41.513c0,35.674,26.866,64.594,60.007,64.594s60.007-28.92,60.007-64.594V165.014C454.713,129.34,427.848,100.42,394.707,100.42Z" transform="translate(116.474 29.852)" fill="#f0bf9c"/>
    <path id="Path_578" data-name="Path 578" d="M417.493,179.378l-.7-.737a21.708,21.708,0,0,0-15.888-7.1H373.374a21.73,21.73,0,0,0-15.9,7.149l-.7.737a25.225,25.225,0,0,0-6.581,17.118v8.928c0,9.446,5.351,17.937,13.5,21.43l2.979,1.3a51.635,51.635,0,0,0,40.828,0l2.978-1.3c8.154-3.492,13.5-11.984,13.505-21.43v-8.928A25.245,25.245,0,0,0,417.493,179.378ZM415.3,202.731a12.138,12.138,0,0,1-7.907,11.62l-11.2,3.831a8.012,8.012,0,0,1-8.338-2.052,1,1,0,0,0-1.489,0,8.013,8.013,0,0,1-8.338,2.052l-11.2-3.831a12.138,12.138,0,0,1-7.907-11.62V194.38a9.009,9.009,0,0,1,7.341-9.1l10.423-1.6a16.386,16.386,0,0,0,10.423-6.187,16.386,16.386,0,0,0,10.423,6.187l10.423,1.6a9.009,9.009,0,0,1,7.341,9.1Z" transform="translate(123.657 72.725)" fill="#a59b95"/>
    <path id="Path_579" data-name="Path 579" d="M365.92,169a15.405,15.405,0,0,0,27.04,0Z" transform="translate(130.975 71.194)" fill="#eba588"/>
    <path id="Path_580" data-name="Path 580" d="M404.492,181.6a119.608,119.608,0,0,1-44.4,1.314,23.872,23.872,0,0,0,11.356,19.755,20.585,20.585,0,0,0,21.58-.281A26.73,26.73,0,0,0,404.492,181.6Z" transform="translate(128.259 78.789)" fill="#fff"/>
    <path id="Path_581" data-name="Path 581" d="M480.608,144.951a13.683,13.683,0,0,0,.208-12.454,12.591,12.591,0,0,0-9.9-7.1,22.2,22.2,0,0,0,1.489-20.837,24.756,24.756,0,0,0-15.337-13.432,30.356,30.356,0,0,0-20.057.978A40.208,40.208,0,0,0,406.456,77.68h-4.884a40.208,40.208,0,0,0-30.554,14.425,30.356,30.356,0,0,0-20.057-.978,24.756,24.756,0,0,0-15.337,13.432,22.2,22.2,0,0,0,1.489,20.837,12.561,12.561,0,0,0-9.9,7.1,13.683,13.683,0,0,0,.208,12.454c-7.847,3.382-12.88,13.961-11.406,22.9a25.343,25.343,0,0,0,16.245,19.234l3.886,17.9a32.793,32.793,0,0,0,7.907,15.291v-27.04a15,15,0,0,1,3.933-10.212l4.748-5.095a16.964,16.964,0,0,0,4.467-11.508V151.442a18.843,18.843,0,0,1,6.939-14.762l8.085-6.411a8.439,8.439,0,0,1,10.944.289l2.546,2.228a16.834,16.834,0,0,0,11.153,4.28H411.34a16.834,16.834,0,0,0,11.153-4.28l2.546-2.228a8.439,8.439,0,0,1,10.944-.288l8.085,6.411a18.842,18.842,0,0,1,6.939,14.762v14.986a16.964,16.964,0,0,0,4.467,11.508l4.75,5.1a15,15,0,0,1,3.931,10.21v26.992a32.792,32.792,0,0,0,7.907-15.291l3.886-17.9a25.165,25.165,0,0,0,16.245-19.234C493.667,158.8,488.455,148.333,480.608,144.951Z" transform="translate(107.727 16.144)" fill="#a59b95"/>
    <path id="Path_582" data-name="Path 582" d="M362.369,138.964a23.9,23.9,0,0,0-17.689,12.63l37.7-5.065A22.853,22.853,0,0,0,362.369,138.964Z" transform="translate(121.84 52.969)" fill="#a59b95"/>
    <ellipse id="Ellipse_46" data-name="Ellipse 46" cx="5.018" cy="5.402" rx="5.018" ry="5.402" transform="translate(479.991 208.41)" fill="#422c4f"/>
    <path id="Path_583" data-name="Path 583" d="M400.012,138.964a23.9,23.9,0,0,1,17.689,12.63L380,146.529A22.853,22.853,0,0,1,400.012,138.964Z" transform="translate(136.774 52.969)" fill="#a59b95"/>
    <ellipse id="Ellipse_47" data-name="Ellipse 47" cx="5.018" cy="5.402" rx="5.018" ry="5.402" transform="translate(530.545 208.41)" fill="#422c4f"/>
    <path id="Path_584" data-name="Path 584" d="M373.744,157.914a36.847,36.847,0,0,0-23.824,0A36.847,36.847,0,0,0,373.744,157.914Z" transform="translate(124.246 63.318)" fill="#eba588"/>
    <path id="Path_585" data-name="Path 585" d="M384.08,157.914a36.848,36.848,0,0,1,23.824,0,36.847,36.847,0,0,1-23.824,0Z" transform="translate(138.711 63.318)" fill="#eba588"/>
    <path id="Path_586" data-name="Path 586" d="M276.25,254.782l3.172-6.011,64.042-17.551,5.867,7.71Z" transform="translate(92.533 108.702)" fill="#fdf7e7"/>
    <path id="Path_587" data-name="Path 587" d="M290.147,265.735,247.83,214.717l13.207-1.667,32.281,46.674Z" transform="translate(80.822 97.748)" fill="#fdf7e7"/>
    <path id="Path_588" data-name="Path 588" d="M247.83,214.09v12.358l42.317,38.66Z" transform="translate(80.851 98.375)" fill="#faeccb"/>
    <path id="Path_589" data-name="Path 589" d="M349.33,236.03l-.61,5.738-72.47,10.114Z" transform="translate(92.533 111.601)" fill="#faeccb"/>
    <path id="Path_590" data-name="Path 590" d="M292.671,263.1l-50-45.681V336.077l42.183,40.551L292.671,263.1Z" transform="translate(78.602 100.383)" fill="#df8d6d"/>
    <path id="Path_591" data-name="Path 591" d="M278.817,249.965,271,363.493h0l72.217-2.132L355.873,239.21Z" transform="translate(90.195 113.518)" fill="#bd6c67"/>
    <path id="Path_592" data-name="Path 592" d="M264.633,340.453l-4.973-73.089h0a8.81,8.81,0,0,1,8.472,7.644l1.8,10.821,6.611-27.408h0c5.436.917,9.4,6.036,9.247,11.957l-.521,21.237,9.425-18.7h0a9.885,9.885,0,0,1,6.209,10.595l-2.621,21.622,9.679-15.323h0a9.594,9.594,0,0,1,5.078,10.13l-4.661,30.293,2.263,20.757-34.1,1.01Z" transform="translate(85.742 125.098)" fill="#422c4f" opacity="0.3"/>
    <path id="Path_593" data-name="Path 593" d="M270.8,357.374l-11.421-40.84-2.665-44.03a5.027,5.027,0,0,1,1.221-3.567,4.322,4.322,0,0,1,3.246-1.5h0a4.591,4.591,0,0,1,4.378,4.119l4.318,34.557,3.35-42.908a5,5,0,0,1,4.824-4.808h0a5.05,5.05,0,0,1,4.854,5.225v44.462l7.371-31.367a5.242,5.242,0,0,1,2.236-3.252,4.586,4.586,0,0,1,3.72-.579h0a5.283,5.283,0,0,1,3.678,5.754L295.59,316.5l9.053-24.363a3.833,3.833,0,0,1,4.765-2.324h0a4.256,4.256,0,0,1,2.621,4.728l-5.748,35.615.67,14.153a39.522,39.522,0,0,1-3.395,18.032h0l-5.837,1.25a32.869,32.869,0,0,1-26.921-6.219Z" transform="translate(84.477 125.086)" fill="#f0bf9c"/>
    <path id="Path_594" data-name="Path 594" d="M266.17,320.15h0a32.864,32.864,0,0,0,26.921,6.171l5.837-1.25.983,6.684H266.17Z" transform="translate(88.686 162.311)" fill="#e4e4e0"/>
    <path id="Path_595" data-name="Path 595" d="M1001.271,452.114H60.222a4.018,4.018,0,0,1,0-8.014h941.048a4.018,4.018,0,0,1,0,8.014Z" transform="translate(0 237.031)" fill="#422c4f"/>
    <path id="Path_596" data-name="Path 596" d="M304.41,410.114V402.1H104.169C86.9,402.1,72.9,417.17,72.9,435.759h0c0,18.59,14,33.659,31.269,33.659H304.41Z" transform="translate(8.02 211.712)" fill="#cc6164"/>
    <path id="Path_597" data-name="Path 597" d="M160.4,429.689a26.58,26.58,0,0,0,6.477,17.471V412.17A26.6,26.6,0,0,0,160.4,429.689Z" transform="translate(50.807 217.783)" fill="#422c4f"/>
    <path id="Path_598" data-name="Path 598" d="M182.1,407.118a23.07,23.07,0,0,0-17.347,8.126v34.99A22.942,22.942,0,0,0,182.1,458.36H376.188V407.07Z" transform="translate(52.934 214.708)" fill="#fdf7e7"/>
    <path id="Path_599" data-name="Path 599" d="M186.669,402.1c-17.269,0-31.269,15.07-31.269,33.659h0c0,18.59,14,33.659,31.269,33.659H386.91V461.4H186.669c-13.158,0-23.824-11.482-23.824-25.645s10.666-25.645,23.824-25.645H386.91V402.1Z" transform="translate(48.362 211.712)" fill="#a34262"/>
    <path id="Path_600" data-name="Path 600" d="M335.668,414.766c-45.132-3.815-118.286-3.815-163.418,0C217.382,418.581,290.536,418.581,335.668,414.766Z" transform="translate(56.602 217.623)" fill="#f5d896"/>
    <path id="Path_601" data-name="Path 601" d="M275.841,421.891a756.025,756.025,0,0,0-106.091,0,760.913,760.913,0,0,0,106.091,0Z" transform="translate(55.379 222.52)" fill="#f5d896"/>
    <path id="Path_602" data-name="Path 602" d="M324.877,433.844c-37.314-3.206-97.812-3.206-135.127,0C227.064,436.986,287.562,436.986,324.877,433.844Z" transform="translate(65.159 229.399)" fill="#f5d896"/>
    <path id="Path_603" data-name="Path 603" d="M317.726,428.047a383.925,383.925,0,0,0-53.976,0A388.889,388.889,0,0,0,317.726,428.047Z" transform="translate(87.463 226.781)" fill="#f5d896"/>
    <path id="Path_604" data-name="Path 604" d="M175.38,421.19l.536.577a13.338,13.338,0,0,1,3.484,9.072v21.734l6.433-6.908,6.3,6.78V430.5a13.335,13.335,0,0,0-3.5-9.072h0Z" transform="translate(58.132 223.22)" fill="#e47790"/>
    <rect id="Rectangle_277" data-name="Rectangle 277" width="198.037" height="30.983" transform="translate(107.364 582.83)" fill="#5dabff"/>
    <rect id="Rectangle_278" data-name="Rectangle 278" width="198.037" height="18.993" transform="translate(107.364 588.824)" fill="#6bc4ff"/>
    <path id="Path_605" data-name="Path 605" d="M223.66,382.77v30.983h87.747v-4.809h-83.28V387.578h83.28V382.77Z" transform="translate(70.265 200.06)" fill="#5297f4"/>
    <rect id="Rectangle_279" data-name="Rectangle 279" width="79.036" height="21.366" transform="translate(298.261 587.638)" fill="#fdf7e7"/>
    <path id="Path_606" data-name="Path 606" d="M300.042,389.271a502.467,502.467,0,0,0-70.162,0A502.449,502.449,0,0,0,300.042,389.271Z" transform="translate(73.032 203.24)" fill="#f5d896"/>
    <path id="Path_607" data-name="Path 607" d="M291.051,392.595a308.139,308.139,0,0,0-43.181,0,308.14,308.14,0,0,0,43.181,0Z" transform="translate(80.86 205.526)" fill="#f5d896"/>
    <path id="Path_608" data-name="Path 608" d="M284.049,395.654a374.813,374.813,0,0,0-52.308,0,374.8,374.8,0,0,0,52.308,0Z" transform="translate(73.968 207.276)" fill="#f5d896"/>
    <path id="Path_609" data-name="Path 609" d="M583.833,455.619V342.94H560.5V455.619c0,19.4,8.393,37.688,22.7,49.47l23.324-.007c-14.306-11.785-22.7-30.071-22.692-49.463Z" transform="translate(212.889 176.049)" fill="#e4e4e0"/>
    <path id="Path_610" data-name="Path 610" d="M653.345,455.619V342.94H576.17V455.619c0,19.4,8.393,37.688,22.7,49.47l31.782-.007C644.959,493.3,653.348,475.01,653.345,455.619Z" transform="translate(218.718 176.049)" fill="#fff"/>
    <path id="Path_611" data-name="Path 611" d="M566.559,448.742c-21.918-51.883-101.386-30.149-128.516-19.555a61.45,61.45,0,0,0-9.693,4.5l7.579,16.525L486,437.538l30.837-2.548,29.08,8.543,11,6.764,9.634,8.88Z" transform="translate(155.318 219.807)" fill="#f5d896"/>
    <path id="Path_612" data-name="Path 612" d="M521.18,448.742c21.9-51.883,101.371-30.149,128.516-19.555a60.418,60.418,0,0,1,9.678,4.5l-7.564,16.525-50.09-12.678-30.837-2.548-29.11,8.543-11,6.764-9.619,8.88Z" transform="translate(194.079 219.807)" fill="#f5d896"/>
    <path id="Path_613" data-name="Path 613" d="M645.96,427.748c-25.73-3.4-59.783-2.468-77.175,20.741h-3.44c-17.377-23.209-51.43-24.139-77.175-20.741-28.008,3.7-54.914,13.64-60.9,17.727l3.157,5.353c9.753-6.652,102.071-38.836,131.121,2.741l.893,1.266h9.232l.878-1.266c29.05-41.593,121.383-9.393,131.121-2.741l3.157-5.353C700.844,441.388,674.042,431.451,645.96,427.748Z" transform="translate(151.651 226.295)" fill="#6c6fc3"/>
    <path id="Path_614" data-name="Path 614" d="M371.25,230.722l-20.772-37.907a33.9,33.9,0,0,0,2.293-12.31V100.637c0-17.7-13.333-32.056-29.78-32.056H180.42c-16.447,0-29.78,14.352-29.78,32.057v79.869c0,17.7,13.333,32.057,29.78,32.057H322.992a27.92,27.92,0,0,0,13.833-3.687Z" transform="translate(46.034 10.658)" fill="#fff"/>
    <path id="Path_617" data-name="Path 617" d="M0,0H134.382V13.143H0Z" transform="translate(228.852 109.083)" fill="#89dbff"/>
    <rect id="Rectangle_281" data-name="Rectangle 281" width="95.609" height="13.143" transform="translate(228.852 133.51)" fill="#89dbff"/>
    <rect id="Rectangle_282" data-name="Rectangle 282" width="134.382" height="13.143" transform="translate(228.852 157.921)" fill="#89dbff"/>
    <rect id="Rectangle_283" data-name="Rectangle 283" width="45.742" height="13.143" transform="translate(228.852 182.348)" fill="#89dbff"/>
    <path id="Path_615" data-name="Path 615" d="M451.2,286.828l20.772-37.907a33.988,33.988,0,0,1-2.293-12.326V156.727c0-17.7,13.333-32.057,29.78-32.057H609.644c16.447,0,29.78,14.352,29.78,32.057V236.6c0,17.7-13.333,32.057-29.78,32.057H499.458a27.752,27.752,0,0,1-13.833-3.687Z" transform="translate(163.739 44.47)" fill="#fff"/>
    <rect id="Rectangle_284" data-name="Rectangle 284" width="110.931" height="13.143" transform="translate(661.413 212.08)" fill="#8bcdff"/>
    <rect id="Rectangle_285" data-name="Rectangle 285" width="68.926" height="13.143" transform="translate(662.324 236.507)" fill="#89dbff"/>
    <rect id="Rectangle_286" data-name="Rectangle 286" width="84.843" height="13.143" transform="translate(661.985 260.918)" fill="#89dbff"/>
    <rect id="Rectangle_287" data-name="Rectangle 287" width="175.702" height="111.252" rx="10" transform="translate(141.001 289.4)" fill="#fff"/>
    <path id="Path_638" data-name="Path 638" d="M27.418-.733c15.143-.4,27.09,12.2,26.685,28.151S41.1,56.63,25.953,57.035-1.138,44.836-.733,28.884,12.276-.328,27.418-.733Z" transform="translate(193.428 329.238) rotate(-22.5)" fill="#cc6164"/>
    <path id="Path_616" data-name="Path 616" d="M193.556,241.029l-28.306-17.6v35.182Z" transform="translate(53.179 104.006)" fill="#fff"/>
    <rect id="Rectangle_288" data-name="Rectangle 288" width="108.116" height="81.568" transform="translate(697.214 374.094)" fill="#fff"/>
    <rect id="Rectangle_289" data-name="Rectangle 289" width="12.552" height="30.133" transform="translate(708.73 416.713)" fill="#cc6164"/>
    <rect id="Rectangle_290" data-name="Rectangle 290" width="12.552" height="45.264" transform="translate(726.871 401.582)" fill="#f0bf6c"/>
    <rect id="Rectangle_291" data-name="Rectangle 291" width="12.552" height="57.782" transform="translate(745.012 389.08)" fill="#81d3cf"/>
    <rect id="Rectangle_292" data-name="Rectangle 292" width="12.552" height="38.564" transform="translate(763.153 408.298)" fill="#eba25d"/>
    <rect id="Rectangle_293" data-name="Rectangle 293" width="12.552" height="22.632" transform="translate(781.295 424.214)" fill="#cc6164"/>
  </g>
</svg>
