<?xml version="1.0" standalone="no"?><svg xmlns="http://www.w3.org/2000/svg" viewBox="0 0 1440 320"><path fill="#ff9f43" fill-opacity="1" d="M0,128L40,138.7C80,149,160,171,240,160C320,149,400,107,480,85.3C560,64,640,64,720,85.3C800,107,880,149,960,154.7C1040,160,1120,128,1200,122.7C1280,117,1360,139,1400,149.3L1440,160L1440,320L1400,320C1360,320,1280,320,1200,320C1120,320,1040,320,960,320C880,320,800,320,720,320C640,320,560,320,480,320C400,320,320,320,240,320C160,320,80,320,40,320L0,320Z"></path></svg>