<?xml version="1.0" standalone="no"?><svg xmlns="http://www.w3.org/2000/svg" viewBox="0 0 1440 320"><path fill="#0099ff" fill-opacity="1" d="M0,288L20,240C40,192,80,96,120,85.3C160,75,200,149,240,186.7C280,224,320,224,360,224C400,224,440,224,480,202.7C520,181,560,139,600,149.3C640,160,680,224,720,240C760,256,800,224,840,218.7C880,213,920,235,960,208C1000,181,1040,107,1080,85.3C1120,64,1160,96,1200,106.7C1240,117,1280,107,1320,128C1360,149,1400,203,1420,229.3L1440,256L1440,320L1420,320C1400,320,1360,320,1320,320C1280,320,1240,320,1200,320C1160,320,1120,320,1080,320C1040,320,1000,320,960,320C920,320,880,320,840,320C800,320,760,320,720,320C680,320,640,320,600,320C560,320,520,320,480,320C440,320,400,320,360,320C320,320,280,320,240,320C200,320,160,320,120,320C80,320,40,320,20,320L0,320Z"></path></svg>